<?xml version="1.0" standalone="no"?>
<!DOCTYPE svg PUBLIC "-//W3C//DTD SVG 20010904//EN"
 "http://www.w3.org/TR/2001/REC-SVG-20010904/DTD/svg10.dtd">
<svg version="1.0" xmlns="http://www.w3.org/2000/svg"
 width="32.000000pt" height="32.000000pt" viewBox="0 0 32.000000 32.000000"
 preserveAspectRatio="xMidYMid meet">

<g transform="translate(0.000000,32.000000) scale(0.100000,-0.100000)"
fill="#0000ff" stroke="none">
<path d="M258 273 c7 -3 16 -2 19 1 4 3 -2 6 -13 5 -11 0 -14 -3 -6 -6z"/>
<path d="M113 185 l-28 -24 43 -1 c38 0 42 2 42 25 0 32 -21 32 -57 0z"/>
<path d="M190 185 c0 -31 34 -35 49 -6 12 22 5 31 -26 31 -18 0 -23 -5 -23
-25z"/>
<path d="M247 155 c-17 -24 -23 -25 -120 -25 -112 0 -127 -6 -127 -52 0 -37
13 -36 27 3 10 25 16 30 40 27 20 -2 32 -12 43 -35 12 -26 21 -33 45 -33 26 0
32 5 40 33 8 27 15 32 40 32 24 0 33 -7 47 -35 l17 -35 1 61 c0 53 -11 85 -29
84 -4 0 -14 -12 -24 -25z"/>
<path d="M47 83 c-13 -12 -7 -60 8 -73 29 -24 56 20 39 64 -6 16 -35 22 -47 9z"/>
<path d="M211 68 c-15 -41 17 -79 43 -52 19 18 21 45 4 62 -19 19 -38 14 -47
-10z"/>
</g>
</svg>
